<svg width="96" height="96" viewBox="0 0 96 96" fill="none" xmlns="http://www.w3.org/2000/svg">
<rect x="18" y="18" width="68" height="68" fill="black" stroke="black" stroke-width="4" stroke-linejoin="round"/>
<rect x="10" y="10" width="68" height="68" fill="#EEC32A" stroke="black" stroke-width="4" stroke-linejoin="round"/>
<path d="M46.1818 32.75H41.8182V35H37.4545V46.25H46.1818V48.5H37.4545V53H41.8182V55.25H46.1818V53H50.5454V41.75H41.8182V39.5H50.5454V35H46.1818V32.75Z" fill="black"/>
<path d="M20 26V62H68V26H20ZM63.6364 34.586C62.7238 34.2498 61.895 33.7089 61.2099 33.0023C60.5247 32.2957 60.0001 31.4411 59.6742 30.5H63.6364V34.586ZM55.1273 57.5H32.8727C32.4409 55.3399 31.4049 53.3577 29.8927 51.7982C28.3804 50.2387 26.4582 49.1703 24.3636 48.725V39.275C26.4582 38.8297 28.3804 37.7613 29.8927 36.2018C31.4049 34.6423 32.4409 32.6601 32.8727 30.5H55.1273C55.5591 32.6601 56.5951 34.6423 58.1073 36.2018C59.6196 37.7613 61.5418 38.8297 63.6364 39.275V48.725C61.5418 49.1703 59.6196 50.2387 58.1073 51.7982C56.5951 53.3577 55.5591 55.3399 55.1273 57.5ZM28.3258 30.5C27.9999 31.4411 27.4753 32.2957 26.7901 33.0023C26.105 33.7089 25.2762 34.2498 24.3636 34.586V30.5H28.3258ZM24.3636 53.414C25.2762 53.7502 26.105 54.2911 26.7901 54.9977C27.4753 55.7043 27.9999 56.5589 28.3258 57.5H24.3636V53.414ZM59.6742 57.5C60.0001 56.5589 60.5247 55.7043 61.2099 54.9977C61.895 54.2911 62.7238 53.7502 63.6364 53.414V57.5H59.6742Z" fill="black"/>
</svg>
