<svg width="96" height="96" viewBox="0 0 96 96" fill="none" xmlns="http://www.w3.org/2000/svg">
<rect x="18" y="18" width="68" height="68" fill="black" stroke="black" stroke-width="4" stroke-linejoin="round"/>
<rect x="10" y="10" width="68" height="68" fill="#EEC32A" stroke="black" stroke-width="4" stroke-linejoin="round"/>
<path d="M46.4 32H41.6V34.4H36.8V46.4H46.4V48.8H36.8V53.6H41.6V56H46.4V53.6H51.2V41.6H41.6V39.2H51.2V34.4H46.4V32Z" fill="black"/>
<path d="M44 20C39.2533 20 34.6131 21.4076 30.6663 24.0447C26.7195 26.6819 23.6434 30.4302 21.8269 34.8156C20.0104 39.201 19.5351 44.0266 20.4612 48.6822C21.3872 53.3377 23.673 57.6141 27.0294 60.9706C30.3859 64.327 34.6623 66.6128 39.3178 67.5388C43.9734 68.4649 48.799 67.9896 53.1844 66.1731C57.5698 64.3566 61.3181 61.2805 63.9553 57.3337C66.5924 53.3869 68 48.7467 68 44C67.993 37.6369 65.4622 31.5365 60.9628 27.0372C56.4635 22.5378 50.3631 20.007 44 20ZM44 63.2C40.2026 63.2 36.4905 62.0739 33.3331 59.9642C30.1756 57.8545 27.7147 54.8559 26.2615 51.3475C24.8083 47.8392 24.4281 43.9787 25.1689 40.2543C25.9098 36.5298 27.7384 33.1087 30.4236 30.4235C33.1087 27.7384 36.5298 25.9098 40.2543 25.1689C43.9787 24.4281 47.8392 24.8083 51.3475 26.2615C54.8559 27.7147 57.8545 30.1756 59.9642 33.333C62.0739 36.4905 63.2 40.2026 63.2 44C63.1943 49.0904 61.1696 53.9707 57.5701 57.5701C53.9707 61.1696 49.0904 63.1943 44 63.2Z" fill="black"/>
</svg>
