<svg width="96" height="96" viewBox="0 0 96 96" fill="none" xmlns="http://www.w3.org/2000/svg">
<rect x="18" y="18" width="68" height="68" fill="black" stroke="black" stroke-width="4" stroke-linejoin="round"/>
<rect x="10" y="10" width="68" height="68" fill="#E2EDFA" stroke="black" stroke-width="4" stroke-linejoin="round"/>
<path d="M48.9271 52.5607L28.9271 28.5607L35.0729 23.4393L55.0729 47.4393L48.9271 52.5607Z" fill="black"/>
<path d="M39.0729 52.5607L59.0729 28.5607L52.9271 23.4393L32.9271 47.4393L39.0729 52.5607Z" fill="black"/>
<path d="M32 25V21H29.8593L28.6718 22.7812L32 25ZM56 25L59.3282 22.7812L58.1407 21H56V25ZM64 37L67.0729 39.5607L68.9849 37.2663L67.3282 34.7812L64 37ZM24 37L20.6718 34.7812L19.0151 37.2663L20.9271 39.5607L24 37ZM44 61L40.9271 63.5607L44 67.2482L47.0729 63.5607L44 61ZM52.6718 27.2188L60.6718 39.2188L67.3282 34.7812L59.3282 22.7812L52.6718 27.2188ZM28.6718 22.7812L20.6718 34.7812L27.3282 39.2188L35.3282 27.2188L28.6718 22.7812ZM32 29H56V21H32V29ZM20.9271 39.5607L40.9271 63.5607L47.0729 58.4393L27.0729 34.4393L20.9271 39.5607ZM47.0729 63.5607L67.0729 39.5607L60.9271 34.4393L40.9271 58.4393L47.0729 63.5607Z" fill="black"/>
</svg>
