<?xml version="1.0" standalone="no"?>
<!DOCTYPE svg PUBLIC "-//W3C//DTD SVG 20010904//EN"
 "http://www.w3.org/TR/2001/REC-SVG-20010904/DTD/svg10.dtd">
<svg version="1.0" xmlns="http://www.w3.org/2000/svg"
 width="253.000000pt" height="37.000000pt" viewBox="0 0 253.000000 37.000000"
 preserveAspectRatio="xMidYMid meet">

<g transform="translate(0.000000,37.000000) scale(0.100000,-0.100000)"
fill="#000000" stroke="none">
<path d="M0 190 l0 -180 55 0 55 0 0 93 1 92 32 -58 c27 -48 36 -57 57 -55 19
2 32 17 55 58 l30 55 3 -93 3 -92 49 0 50 0 0 180 0 180 -50 0 -50 0 -42 -85
c-23 -47 -45 -85 -48 -85 -3 0 -25 38 -48 85 l-42 85 -55 0 -55 0 0 -180z"/>
<path d="M790 320 c-16 -33 -30 -50 -42 -50 -23 0 -26 -55 -3 -64 11 -4 15
-22 15 -76 0 -62 3 -74 25 -95 18 -19 35 -25 69 -25 59 0 76 8 76 34 0 28 -11
43 -35 47 -17 4 -20 13 -23 62 l-3 57 31 0 c27 0 30 3 30 30 0 27 -3 30 -30
30 -29 0 -30 1 -30 50 0 48 -1 50 -28 50 -24 0 -32 -7 -52 -50z"/>
<path d="M1300 365 c0 -8 59 -274 71 -317 l10 -38 59 0 58 0 21 86 c11 47 22
88 24 91 3 2 12 -31 21 -74 10 -43 19 -84 21 -90 3 -9 25 -13 65 -13 33 0 60
2 60 4 0 4 42 189 75 334 5 21 2 22 -54 22 l-58 0 -13 -97 c-7 -54 -15 -102
-18 -108 -3 -5 -13 24 -22 65 l-16 75 -61 3 -61 3 -13 -71 c-7 -39 -16 -73
-19 -75 -4 -3 -14 41 -21 98 l-14 102 -57 3 c-32 2 -58 0 -58 -3z"/>
<path d="M2215 361 l-40 -6 -3 -146 c-2 -135 -1 -148 18 -172 17 -22 30 -27
65 -27 64 0 75 7 75 46 0 29 -3 34 -24 34 -13 0 -27 7 -30 16 -3 9 -6 72 -6
140 0 68 -3 123 -7 123 -5 -1 -26 -5 -48 -8z"/>
<path d="M2430 363 c-76 -12 -70 0 -70 -142 0 -181 14 -211 99 -211 59 0 71 8
71 45 0 29 -4 34 -27 37 l-28 3 -3 138 c-1 75 -6 136 -10 136 -4 -1 -18 -3
-32 -6z"/>
<path d="M503 250 c-85 -51 -81 -179 6 -225 30 -15 116 -20 159 -9 22 6 28 27
16 58 -4 12 -16 14 -55 9 -32 -4 -54 -1 -64 7 -24 20 -10 27 65 35 70 7 70 7
70 37 0 38 -26 83 -57 97 -38 17 -105 13 -140 -9z m112 -60 c0 -8 -14 -17 -35
-21 -42 -9 -45 -7 -30 21 13 25 65 25 65 0z"/>
<path d="M1006 249 c-74 -58 -74 -160 0 -218 36 -28 106 -29 134 -1 20 20 20
20 20 0 0 -18 7 -20 55 -20 l55 0 0 130 0 130 -55 0 c-50 0 -55 -2 -55 -22 l0
-21 -23 21 c-31 29 -95 30 -131 1z m142 -71 c7 -7 12 -24 12 -38 0 -33 -17
-50 -50 -50 -33 0 -50 17 -50 50 0 33 17 50 50 50 14 0 31 -5 38 -12z"/>
<path d="M1835 237 c-59 -59 -59 -135 0 -194 28 -28 40 -33 79 -33 33 0 52 6
66 20 20 20 20 20 20 0 0 -18 7 -20 55 -20 l55 0 0 130 0 130 -55 0 c-50 0
-55 -2 -55 -22 l0 -21 -23 21 c-16 16 -36 22 -66 22 -35 0 -49 -6 -76 -33z
m153 -59 c7 -7 12 -24 12 -38 0 -34 -17 -50 -52 -50 -37 0 -57 38 -40 75 13
27 58 35 80 13z"/>
</g>
</svg>
