<svg width="96" height="96" viewBox="0 0 96 96" fill="none" xmlns="http://www.w3.org/2000/svg">
<rect x="18" y="18" width="68" height="68" fill="black" stroke="black" stroke-width="4" stroke-linejoin="round"/>
<rect x="10" y="10" width="68" height="68" fill="#EEC32A" stroke="black" stroke-width="4" stroke-linejoin="round"/>
<path d="M59.0748 33.6269C56.8467 31.3173 54.0344 29.5883 50.9054 28.6046L56.9316 20H31.0687L37.0949 28.6046C33.9658 29.5883 31.1535 31.3173 28.9254 33.6269C18.618 44.1566 20.0389 64.7815 20.0973 65.653L20.2805 68H67.7197L67.903 65.653C67.9614 64.7815 69.3823 44.1566 59.0748 33.6269ZM42.7651 27.5789L40.9963 25.0526H47.0039L45.2351 27.5789H42.7651ZM25.3267 62.9474C25.2842 57.5335 25.9163 44.1061 32.8216 37.0602C34.238 35.5979 35.9707 34.4448 37.9005 33.6803C39.8302 32.9158 41.9111 32.558 44.0001 32.6316C46.0891 32.558 48.17 32.9158 50.0998 33.6803C52.0295 34.4448 53.7622 35.5979 55.1787 37.0602C62.0839 44.1061 62.716 57.5234 62.6735 62.9474H25.3267Z" fill="black"/>
<path d="M46.6559 35.1579H41.3442V37.6842H36.0324V50.3158H46.6559V52.8421H36.0324V57.8947H41.3442V60.4211H46.6559V57.8947H51.9676V45.2632H41.3442V42.7368H51.9676V37.6842H46.6559V35.1579Z" fill="black"/>
</svg>
